<svg xmlns="http://www.w3.org/2000/svg" xmlns:xlink="http://www.w3.org/1999/xlink" width="564.746" height="462.307" viewBox="0 0 564.746 462.307">
  <defs>
    <linearGradient id="linear-gradient" x1="0.5" y1="2.134" x2="0.5" y2="3.134" gradientUnits="objectBoundingBox">
      <stop offset="0" stop-color="gray" stop-opacity="0.251"/>
      <stop offset="0.54" stop-color="gray" stop-opacity="0.122"/>
      <stop offset="1" stop-color="gray" stop-opacity="0.102"/>
    </linearGradient>
    <linearGradient id="linear-gradient-2" y1="-0.541" y2="0.459" xlink:href="#linear-gradient"/>
    <linearGradient id="linear-gradient-3" x1="119.784" y1="1327.913" x2="119.784" y2="1328.939" xlink:href="#linear-gradient"/>
    <linearGradient id="linear-gradient-4" x1="0.927" y1="-0.386" x2="0.927" y2="0.614" xlink:href="#linear-gradient"/>
    <linearGradient id="linear-gradient-5" x1="0.976" y1="-0.425" x2="0.976" y2="0.575" xlink:href="#linear-gradient"/>
  </defs>
  <g id="Group_5" data-name="Group 5" transform="translate(-386.362 -257.775)">
    <ellipse id="Ellipse_1" data-name="Ellipse 1" cx="97.116" cy="16.548" rx="97.116" ry="16.548" transform="translate(386.362 686.985)" fill="#00c7fa" opacity="0.1" style="isolation: isolate"/>
    <ellipse id="Ellipse_2" data-name="Ellipse 2" cx="97.116" cy="16.548" rx="97.116" ry="16.548" transform="translate(756.876 683.067)" fill="#00c7fa" opacity="0.1" style="isolation: isolate"/>
    <path id="Path_1" data-name="Path 1" d="M179.779.261c-25.383,1.357-51.03,8.774-70.834,24.715C91.569,38.97,79.038,60.97,82.095,83.075c3.609,26.094,26.889,45.076,35.525,69.968,5.557,16,4.69,33.66,1.054,50.213-2.34,10.666-5.937,21.343-12.851,29.8C93.368,248.26,70.893,255.6,64.774,274.277c-6.655,20.312,10.114,40.231,25.868,54.677,12.575,11.527,25.747,23,41.594,29.317,11.588,4.624,24.163,6.285,36.628,6.947a244.284,244.284,0,0,0,100.979-16.134c15.4-5.976,30.3-13.552,46.417-17.155,34.349-7.681,69.692,3.394,104.5,8.58a312.556,312.556,0,0,0,90.036.265c18.794-2.682,38.212-7.521,52.365-20.168,14.347-12.84,21.52-32.716,20.725-51.974s-8.917-37.8-20.88-52.917c-15.45-19.528-36.761-33.422-55.3-50.064a239.123,239.123,0,0,1-47.576-58.81c-7.284-12.691-13.48-26.161-22.916-37.334-14.716-17.415-36.06-27.772-57.387-35.773C330.634,15.3,279.6,11.551,228.309,3.407,212.28.852,196.018-.588,179.779.261Z" transform="translate(358.001 257.758)" fill="#00c7fa" opacity="0.1" style="isolation: isolate"/>
    <g id="Group_1" data-name="Group 1" transform="translate(529.023 297.605)" opacity="0.7">
      <path id="Path_2" data-name="Path 2" d="M258.54,367.11H363.911v58.882H258.54Z" transform="translate(-258.54 -204.38)" fill="#f6f7f9"/>
      <circle id="Ellipse_3" data-name="Ellipse 3" cx="10.97" cy="10.97" r="10.97" transform="translate(8.867 177.899)" fill="#00c7fa" opacity="0.2" style="isolation: isolate"/>
      <path id="Path_3" data-name="Path 3" d="M338.61,390.92h47.8v3.007h-47.8Zm0,7.664h24.351v3.007H338.61Zm0,7.664h39.382v3.007H338.61Zm0,7.664h47.8v3.007h-47.8Zm34.576,11.063h13.227v5.81H373.185Z" transform="translate(-294.428 -215.052)" fill="#00c7fa" opacity="0.2" style="isolation: isolate"/>
      <path id="Path_4" data-name="Path 4" d="M419.31,72.2H524.681v58.882H419.31Z" transform="translate(-330.598 -72.2)" fill="#f6f7f9"/>
      <circle id="Ellipse_4" data-name="Ellipse 4" cx="10.97" cy="10.97" r="10.97" transform="translate(97.585 15.169)" fill="#00c7fa" opacity="0.2" style="isolation: isolate"/>
      <path id="Path_5" data-name="Path 5" d="M499.39,96.01h47.8v3.007h-47.8Zm0,7.664h24.351v3.007H499.39Zm0,7.664h39.382v3.007H499.39Zm0,7.67h47.8v3.007h-47.8Zm34.57,11.058h13.227v5.81H533.96Z" transform="translate(-366.49 -82.872)" fill="#00c7fa" opacity="0.2" style="isolation: isolate"/>
      <path id="Path_6" data-name="Path 6" d="M482.87,251.36H588.241v58.882H482.87Z" transform="translate(-359.086 -152.5)" fill="#f6f7f9"/>
      <circle id="Ellipse_5" data-name="Ellipse 5" cx="10.97" cy="10.97" r="10.97" transform="translate(132.652 114.034)" fill="#00c7fa" opacity="0.2" style="isolation: isolate"/>
      <path id="Path_7" data-name="Path 7" d="M562.95,275.18h47.8v3.007h-47.8Zm0,7.664H587.3v3.007H562.95Zm0,7.664h39.382v3.007H562.95Zm0,7.664h47.8v3.007h-47.8Zm34.57,11.064h13.227v5.81H597.52Z" transform="translate(-394.978 -163.177)" fill="#00c7fa" opacity="0.2" style="isolation: isolate"/>
    </g>
    <path id="Path_2-2" data-name="Path 2" d="M191.88,135.71H369.067V235.828H191.88Z" transform="translate(300.361 196.94)" fill="url(#linear-gradient)"/>
    <path id="Path_3-2" data-name="Path 3" d="M194.15,137.96h174.7v97.629H194.15Z" transform="translate(299.343 195.931)" fill="#f6f7f9"/>
    <circle id="Ellipse_3-2" data-name="Ellipse 3" cx="18.187" cy="18.187" r="18.187" transform="translate(508.193 359.048)" fill="#00c7fa" opacity="0.2" style="isolation: isolate"/>
    <path id="Path_4-2" data-name="Path 4" d="M326.92,177.44h79.249v4.983H326.92Zm0,12.713h40.369v4.983H326.92Zm0,12.708h65.294v4.983H326.92Zm0,12.708h79.249v4.983H326.92Z" transform="translate(239.835 178.236)" fill="#00c7fa" opacity="0.2" style="isolation: isolate"/>
    <path id="Path_5-2" data-name="Path 5" d="M430.79,279.78h21.928v9.634H430.79Z" transform="translate(193.28 132.367)" fill="#00c7fa"/>
    <path id="Path_6-2" data-name="Path 6" d="M417.12,380.82H585.649v94.175H417.12Z" transform="translate(199.407 87.08)" fill="url(#linear-gradient-2)"/>
    <path id="Path_7-2" data-name="Path 7" d="M419.23,381.99h166.2v92.878H419.23Z" transform="translate(198.461 86.556)" fill="#f6f7f9"/>
    <circle id="Ellipse_4-2" data-name="Ellipse 4" cx="17.304" cy="17.304" r="17.304" transform="translate(631.679 492.477)" fill="#00c7fa" opacity="0.2" style="isolation: isolate"/>
    <path id="Path_8" data-name="Path 8" d="M545.54,419.55h75.392v4.74H545.54Zm0,12.1h38.4v4.74h-38.4Zm0,12.09h62.116v4.74H545.54Zm0,12.09h75.392v4.74H545.54Z" transform="translate(141.848 69.721)" fill="#00c7fa" opacity="0.2" style="isolation: isolate"/>
    <path id="Path_9" data-name="Path 9" d="M644.36,516.91h20.863v9.165H644.36Z" transform="translate(97.557 26.084)" fill="#00c7fa" opacity="0.5" style="isolation: isolate"/>
    <path id="Path_10" data-name="Path 10" d="M82.86,287.913l.408.088A.552.552,0,0,0,82.86,287.913Z" transform="translate(349.224 128.725)" opacity="0.1" fill="url(#linear-gradient-3)" style="isolation: isolate"/>
    <path id="Path_11" data-name="Path 11" d="M147.391,321.2c-1.219-8.189-8.658-27.292-8.658-27.292-.132-.552-.276-1.137-.441-1.7-5.281-18.148-12.586-19.754-12.586-19.754l-26.172-5.579a1.954,1.954,0,0,1,.552.519l-.414.066a10.241,10.241,0,0,1-2.3-4.966c-.05-.27-.094-.552-.127-.839a18.4,18.4,0,0,0-1.5-27.678c-.27-.215-.552-.419-.839-.624,1.236-1.308,1.275-3.134.353-4.966-2.064-4.287-6.544-7-11.157-8.316a18.9,18.9,0,0,0-10.826-.232,39.625,39.625,0,0,0-5.667,2.627c-3.476,1.738-7.306,3.112-9.932,5.965a2.918,2.918,0,0,0-.993,2.395,6.467,6.467,0,0,0,.988,1.744,5.308,5.308,0,0,1,.05,4.359c-.5,1.418-1.264,2.759-1.622,4.194a4.376,4.376,0,0,0,.877,4.2,18.891,18.891,0,0,0,1.655,1.159,8.444,8.444,0,0,1,1.562,1.749l3.1,4.188a42.8,42.8,0,0,1,3.863,5.9,28.145,28.145,0,0,0,2.4,4.5,7.055,7.055,0,0,0,1.032,1.1c-.1-.039-.2-.072-.3-.116a4.7,4.7,0,0,0,3.465,1.33h.155a.944.944,0,0,0,.635-.259v.552c.055,2.014.05,4.155-.094,6.164l-.243-.121a2.1,2.1,0,0,0-2.257.237L47.842,291.026s-5.237,7.173-4.508,19.534l-4.221,18.551s-5.281,15.743-1.219,26.983,6.417,17.657,6.417,17.657,1.622,12.769,4.061,13.795,3.493,1.611,3.493,1.611l.486,3.051s.16.292.447.8c1.777,3.085,8.349,13.977,12.173,12.818a49.539,49.539,0,0,1,.624,8.945l3.774,25.383s2.638,6.9,2.478,10.517,3.085,8.757,3.085,8.757a16.74,16.74,0,0,0-1.622,11.8c1.545,6.748,3.493,37.9,3.493,37.9l2.842,7.549-.083,8.829a8.463,8.463,0,0,1-1.744,3.918c-1.832,1.986-1.711,4.282-6.07,6.991s-7.173,3.73-7.173,7.344a9.491,9.491,0,0,1-.132,1.49c-.408,2.643-1.2,4.067,6.9,4.839a21.315,21.315,0,0,0,15.837-5.3s1.4-2.533,7.979-3.554c0,0,2.246-.121,2.373-2.113.044-.684.033-2-.028-3.443-.1-2.759-.37-5.97-.717-6.13-.436-.193-1.208-2.969-1.473-3.973h1.832s1.705-12.769,0-21.045a33.757,33.757,0,0,1-.16-14.132l-.326-21.84s-2.3-2.334-.5-6.583,0-25.294,0-25.294.657-7.549,2.522-9.314.094-11.063,0-11.549l3.311,11.146s1.462,22.166,4.552,26.183l.894,10.032s6.335,9.237,5.115,14.22,1.3,22.966,1.3,22.966v18.391s-2.847,7.389,1.137,10.037l1.716-.066c-.585.552-1,1.319-1.655,2-.761.784-1.192,3.763-1.435,6.324-.2,2.169-.27,4.034-.27,4.034a6.669,6.669,0,0,0,4.872,2.891c3.167.182,13.646,8.194,13.646,8.194s10.363,0,13.039-.552l.16-.039a3.539,3.539,0,0,0,2.02-1.655,4.218,4.218,0,0,0,.491-3.035c-.337-1.584-1.589-3.311-4.376-4.8-6.947-3.669-7.979-7.1-7.979-7.1l-4.552-6.82h.651a29.147,29.147,0,0,1,4.547-15.34l-.32-35.734s2.025-12.288-1.462-18.954c0,0-.287-7.068,2.047-9.237s-3.107-24.091-3.107-24.091-1.1-11.764-2.45-22.5c5.479,5.2,11.168-13.524,12.139-16.852h.143s-.028-.088-.066-.243a.232.232,0,0,1,.066-.237c0-.028-1.214-4.332-.326-3.454s3.09-2.406,3.09-2.406-.326-17.911,3.493-26.939-1.722-30.983-1.722-30.983Zm-16.328,11.395.028-.05c.552,10.937-.11,34.272-.11,34.272s-.75,2.991-1.556,6.511l-.579-22.171-.552-20.88Zm-69.929-7.538s2.759,34.531,0,39.509a25.761,25.761,0,0,0-1.992,6.826c-.91-2.395-2.842-8.018-2.152-11,.894-3.863-1.788-13.977-1.788-14.214s-.243-5.623,1.705-9.761.651-5.9.651-5.9,1.628-6.743,3.576-5.457Z" transform="translate(370.066 159.542)" fill="url(#linear-gradient-4)"/>
    <path id="Path_12" data-name="Path 12" d="M81.589,535.764c-2.4,10.572-11.968-5.419-14.148-9.254L67,525.715l1.037-4.861,5.485-2.235a15.139,15.139,0,0,1,2.45,1.6A14.74,14.74,0,0,1,81.589,535.764Zm74.216-17.3-.061.237a1.423,1.423,0,0,1-.077.259c-.938,3.311-6.517,21.884-11.9,16.725-5.893-5.661-3.029-18.662-3.029-18.662h.055l12.4-1.269,2.455,2.527Z" transform="translate(356.332 26.604)" fill="#efb7b9"/>
    <path id="Path_13" data-name="Path 13" d="M153.366,611.1l.315,35.469a29.24,29.24,0,0,0-4.464,15.23l-16,.635c-3.907-2.627-1.1-9.96-1.1-9.96V634.213s-2.5-17.845-1.308-22.811-5.021-14.109-5.021-14.109l-.872-9.96c-3.035-3.984-4.47-25.99-4.47-25.99l-3.261-11.036c.083.48,1.777,9.756,0,11.461s-2.472,9.248-2.472,9.248,1.755,20.885,0,25.107.475,6.622.475,6.622l.326,21.68a33.917,33.917,0,0,0,.155,14.032c1.672,8.211,0,20.885,0,20.885H98.445l.077-8.829-2.787-7.493s-1.915-30.928-3.427-37.621a16.8,16.8,0,0,1,1.589-11.72s-3.184-5.1-3.024-8.691-2.433-10.44-2.433-10.44l-3.708-25.19A48.873,48.873,0,0,0,82.9,535.011c-2.158-7.173-5.341-16.581-5.341-16.581l3.6.32,18.165,1.617s44.144-2.969,46.136-.5a8.247,8.247,0,0,1,.839,2.571c1.981,8.911,4.6,36.81,4.6,36.81s5.341,21.763,3.046,23.915-2.009,9.165-2.009,9.165c3.421,6.577,1.429,18.772,1.429,18.772Z" transform="translate(351.599 25.403)" fill="#444053"/>
    <path id="Path_14" data-name="Path 14" d="M120.738,784.471c-.127,1.975-2.334,2.1-2.334,2.1-6.456,1.015-7.824,3.531-7.824,3.531a20.872,20.872,0,0,1-15.533,5.286c-7.94-.761-7.173-2.207-6.765-4.8a9.418,9.418,0,0,0,.127-1.479c0-3.587,2.759-4.607,7.057-7.295s4.183-4.966,5.976-6.936,1.975-5.794,1.975-5.794c2.031-3.532,7.173.552,7.173.552.237,1.253,7.891,1.1,7.891,1.1s1.015,4.067,1.534,4.3c.342.16.6,3.349.706,6.07.05,1.38.055,2.687.017,3.36Z" transform="translate(346.898 -86.296)" fill="#b07473"/>
    <path id="Path_15" data-name="Path 15" d="M120.738,795.352c-.127,1.975-2.334,2.1-2.334,2.1-6.456,1.015-7.824,3.531-7.824,3.531a20.872,20.872,0,0,1-15.533,5.286c-7.94-.761-7.173-2.207-6.765-4.8,3.548.883,10.335,2.108,14.3-.044,5.518-2.991,9.452-5.082,9.452-5.082l8.68-4.42c.061,1.451.066,2.759.028,3.432Z" transform="translate(346.898 -97.177)" opacity="0.1" style="isolation: isolate"/>
    <path id="Path_16" data-name="Path 16" d="M208.573,796.9a3.465,3.465,0,0,1-1.986,1.655.79.79,0,0,1-.155.039c-2.632.552-12.8.552-12.8.552s-10.3-7.979-13.392-8.161a6.6,6.6,0,0,1-4.784-2.869s.061-1.854.259-4.006c.243-2.544.668-5.518,1.413-6.279,1.379-1.435,1.655-3.4,4.784-2.152,0,0,4.414-7.786,9.623-1.771l5.386,8.172s1.015,3.4,7.835,7.052c2.731,1.462,3.962,3.184,4.287,4.756a4.21,4.21,0,0,1-.475,3.013Z" transform="translate(307.72 -88.082)" fill="#b07473"/>
    <path id="Path_17" data-name="Path 17" d="M208.573,807.041c-.607.513-1.286,1.065-1.986,1.655a.786.786,0,0,1-.155.039c-2.632.552-12.8.552-12.8.552s-10.3-7.979-13.392-8.161a6.6,6.6,0,0,1-4.784-2.869s.061-1.854.259-4.006c3.162.949,7.962,2.621,9.248,4.414,1.97,2.759,7.957,6.572,7.957,6.572s11.163-1.07,16.123-1.219a4.21,4.21,0,0,1-.475,3.024Z" transform="translate(307.72 -98.221)" opacity="0.1" style="isolation: isolate"/>
    <path id="Path_18" data-name="Path 18" d="M132.54,298.093l-14.711,15.544s-17.817-1.313-14.705-6.577c1.584-2.676,1.832-8.277,1.694-13.166-.132-4.707-.618-8.713-.618-8.713s24.991-12.437,23.076-.839a19.241,19.241,0,0,0-.072,6.622c1.087,5.86,5.336,7.129,5.336,7.129Z" transform="translate(340.305 132.539)" fill="#efb7b9"/>
    <path id="Path_19" data-name="Path 19" d="M128.436,284.342a19.241,19.241,0,0,0-.072,6.622,18.344,18.344,0,0,1-13.078,5.457c-3.4,0-7.035-2.759-9.767-4.387-.132-4.707-.16-6.853-.16-6.853S130.351,272.744,128.436,284.342Z" transform="translate(339.139 132.539)" opacity="0.1" style="isolation: isolate"/>
    <path id="Path_20" data-name="Path 20" d="M126.808,260.184a18.419,18.419,0,1,1-6.931-14.391A18.419,18.419,0,0,1,126.808,260.184Z" transform="translate(346.037 149.403)" fill="#efb7b9"/>
    <path id="Path_21" data-name="Path 21" d="M148.537,522.616c-4.585,10.915-34.084,11.141-34.084,11.141v-11.9l-1.788-.116c.773,3.4-1.1,11.715-1.1,11.715-23.313,3.311-28.991-9.982-28.991-9.982l.806-4.547,18.165,1.617s44.144-2.969,46.136-.5a8.232,8.232,0,0,1,.861,2.571Z" transform="translate(349.354 25.179)" opacity="0.1" style="isolation: isolate"/>
    <path id="Path_22" data-name="Path 22" d="M114.453,438.365v-11.9l-1.788-.11c.773,3.4-1.1,11.715-1.1,11.715-17.542,2.472-25.107-4.414-27.772-8a10.83,10.83,0,0,1-1.219-1.986l7.113-40.055,1.655-58.948L93.9,318.736l.6-4.966v-.055l.061.028,1.81.778,10.859,4.69,12.4-9.309.182-.138.612-.464,1.021.822,2.533,2.031,8.133,52.5s14.1,40.424,16.719,56.741c.1.651.193,1.258.259,1.826C150.8,438.089,114.453,438.365,114.453,438.365Z" transform="translate(349.354 119.136)" fill="#e1e7ef"/>
    <circle id="Ellipse_5-2" data-name="Ellipse 5" cx="1.048" cy="1.048" r="1.048" transform="translate(456.898 438.434)" fill="#67647e"/>
    <circle id="Ellipse_6" data-name="Ellipse 6" cx="1.048" cy="1.048" r="1.048" transform="translate(457.384 447.997)" fill="#67647e"/>
    <circle id="Ellipse_7" data-name="Ellipse 7" cx="1.048" cy="1.048" r="1.048" transform="translate(458.427 463.486)" fill="#67647e"/>
    <circle id="Ellipse_8" data-name="Ellipse 8" cx="1.048" cy="1.048" r="1.048" transform="translate(460.165 480.161)" fill="#67647e"/>
    <circle id="Ellipse_9" data-name="Ellipse 9" cx="1.048" cy="1.048" r="1.048" transform="translate(461.208 495.827)" fill="#67647e"/>
    <circle id="Ellipse_10" data-name="Ellipse 10" cx="1.048" cy="1.048" r="1.048" transform="translate(462.256 512.507)" fill="#67647e"/>
    <circle id="Ellipse_11" data-name="Ellipse 11" cx="1.048" cy="1.048" r="1.048" transform="translate(461.837 529.012)" fill="#67647e"/>
    <path id="Path_23" data-name="Path 23" d="M95.289,397.312s-1.17,15.34-3.311,19.8-3.112,16.979-3.112,16.979l-4.966-.552a10.831,10.831,0,0,1-1.219-1.986L89.793,391.5l1.655-58.948,2.566-10.341.6-4.966a.138.138,0,0,1,.066-.028,2.015,2.015,0,0,1,1.777.028l.243.121c-.072.2-.143.414-.21.629-1.942,6.1-2.671,17.343-2.671,17.343s2.792,20.565,3.107,30.134-1.633,31.844-1.633,31.844Z" transform="translate(349.305 115.676)" opacity="0.1" style="isolation: isolate"/>
    <path id="Path_24" data-name="Path 24" d="M75.972,522.55a3.312,3.312,0,0,1-.188.37c-1.937,3.272-6.848,5.352-8.343,5.921L67,528.046l1.037-4.861,5.485-2.235A15.143,15.143,0,0,1,75.972,522.55Z" transform="translate(356.332 24.273)" opacity="0.1" style="isolation: isolate"/>
    <path id="Path_25" data-name="Path 25" d="M49.947,381.98l-4.541,2.726-4.149,18.413s-5.181,15.627-1.192,26.784,6.313,17.52,6.313,17.52,1.595,12.691,3.984,13.712,3.432,1.595,3.432,1.595l.475,3.029s6.489-2.207,8.785-6.07-1.688-13.525-1.688-13.525-3.427-8.211-2.549-12.035-1.755-13.872-1.755-14.109-.237-5.584,1.655-9.69.64-5.855.64-5.855l-1.2-11.72Z" transform="translate(369.082 86.56)" fill="#67647e"/>
    <path id="Path_26" data-name="Path 26" d="M178.781,425.506s-12.035,4.547-15.864.552-3.427-22.624-3.427-22.624-3.664-34.437-5.981-40.093-1.1-46.478-1.1-46.478-1.567-5.27-2.908-6.666a1.378,1.378,0,0,0-.287-.237l.469.1,1.655.359,2.533,2.031,8.133,52.5s14.1,40.425,16.719,56.741Z" transform="translate(319.485 118.84)" opacity="0.1" style="isolation: isolate"/>
    <path id="Path_27" data-name="Path 27" d="M215.686,518.926h-.138c-1.512.193-14.9,1.81-14.948-.971a8.556,8.556,0,0,1,.055-.966l12.4-1.269,2.455,2.527c.044.166.083.309.116.419Z" transform="translate(296.452 26.618)" opacity="0.1" style="isolation: isolate"/>
    <path id="Path_28" data-name="Path 28" d="M202.878,348.55l8.8,4.585s7.3,18.96,8.5,27.093c0,0,5.419,21.779,1.655,30.735s-3.427,26.74-3.427,26.74-2.152,3.267-3.029,2.389.32,3.427.32,3.427-15.025,2-15.1-.96,3.449-17.061,3.449-17.061.955-33.56-.4-38.819-.767-38.129-.767-38.129Z" transform="translate(296.453 101.544)" fill="#67647e"/>
    <path id="Path_29" data-name="Path 29" d="M107.292,336.415s-4.966,12.112-6.539,12.912.32,3.984.32,3.984S110.084,340.719,107.292,336.415Zm-2.947-42.494c.055-.232-5.9,5.844-7.493,6.748S102.646,300.62,104.345,293.922Zm-16.6,41.534s-9.088,5.882-7.9,8.2S87.747,335.455,87.747,335.455Zm16.515,85.777a48.926,48.926,0,0,0,19.771,6.219ZM85.689,433.189s7.173,9.005,10.445,9.248S85.689,433.189,85.689,433.189ZM95.732,468.5c-.32.16-4.067,8.128-7.891,8.371S95.732,468.5,95.732,468.5Zm33.246,17.453s7.107-1.589,8.685,3.509C137.662,489.467,137.188,487.872,128.977,485.957Zm-4.784,29.179s8.608-1.755,10.44.64S124.193,515.136,124.193,515.136ZM99.826,519.2c0,.077-8.768,1.755-8.42,2.869s9.347.955,9.667-.8a1.655,1.655,0,0,0-1.143-2.043c-.034-.01-.069-.018-.1-.026Zm21.5,7.571s14.4-1.755,13.5,1.275-13.5-1.275-13.5-1.275ZM45.91,349.327c.083.237,9.485,1.512,10.76,4.541,0,0-9.243-4.3-10.677-4.3M59.142,373.96s-7.813,2.472-7.262,6.219S51.091,378.429,59.142,373.96ZM55.5,392.93s2.847-3.907,5.557-3.189S55.5,392.93,55.5,392.93Zm44.624-147.158a4.567,4.567,0,0,1-.916.684c-2.268,1.313-2.875,3.311-3.962,5.667-.993,2.135-2.091,4.414-4.105,5.606-2.593,1.562-6.015.988-8.713,2.356a6.793,6.793,0,0,0-3.609,6.666,19.631,19.631,0,0,0,.773,3.051,22.023,22.023,0,0,1,.822,6.622.843.843,0,0,1,0,.2,18.419,18.419,0,1,1,19.732-30.862Z" transform="translate(365.785 149.424)" opacity="0.1" style="isolation: isolate"/>
    <path id="Path_30" data-name="Path 30" d="M111.94,231.555c-2.025-4.254-6.423-6.942-10.948-8.277a18.365,18.365,0,0,0-10.628-.226,36.13,36.13,0,0,0-5.562,2.6c-3.416,1.727-7.173,3.09-9.739,5.926a2.909,2.909,0,0,0-.971,2.378,6.448,6.448,0,0,0,.966,1.727,5.273,5.273,0,0,1,.05,4.326,43.351,43.351,0,0,0-1.589,4.166,4.366,4.366,0,0,0,.855,4.172,19.29,19.29,0,0,0,1.611,1.148,8.689,8.689,0,0,1,1.528,1.738l3.04,4.155a41.983,41.983,0,0,1,3.807,5.86,28.913,28.913,0,0,0,2.356,4.464A5.087,5.087,0,0,0,90.989,268a.811.811,0,0,0,.673-.32.839.839,0,0,0,.088-.425,21.721,21.721,0,0,0-.822-6.622,19.632,19.632,0,0,1-.773-3.051,6.8,6.8,0,0,1,3.609-6.666c2.7-1.363,6.125-.789,8.718-2.351,2.014-1.219,3.112-3.476,4.105-5.612,1.1-2.334,1.694-4.354,3.962-5.667s2.511-3.493,1.391-5.728Z" transform="translate(353.488 158.1)" fill="#585268"/>
    <path id="Path_31" data-name="Path 31" d="M115.526,575.127s2.8,3.587,2.086,5.617S115.526,575.127,115.526,575.127Zm38.113,8.967s.624-4.812,3.134-4.856,2.632-.259,4.547.474,3.708,1.882,3.14,2.058-3.311-2.759-6.07-1.264A20.1,20.1,0,0,0,153.638,584.093Zm-46.516-255.26,7.858-5.518s-11.538-6.82-12.912-5.86-2.318,9.568-2.318,9.568Z" transform="translate(341.654 115.522)" opacity="0.1" style="isolation: isolate"/>
    <path id="Path_32" data-name="Path 32" d="M107.089,328.076l7.891-5.65s-11.538-6.815-12.912-5.86-2.318,10.048-2.318,10.048Z" transform="translate(341.654 115.921)" fill="#e1e7ef"/>
    <path id="Path_33" data-name="Path 33" d="M107.089,328.076l7.891-5.65s-11.538-6.815-12.912-5.86-2.318,10.048-2.318,10.048Z" transform="translate(341.654 115.921)" opacity="0.03" style="isolation: isolate"/>
    <path id="Path_34" data-name="Path 34" d="M81.462,316.481l-.237-.121a2.036,2.036,0,0,0-2.207.232l-23.661,19.2s-5.143,7.113-4.414,19.39l13.949,19.771s1.595-6.7,3.509-5.424c0,0,2.709,34.277,0,39.222s-3.907,23.435-3.907,23.435l9.165,1.037s.955-12.515,3.107-16.979,3.311-19.8,3.311-19.8,1.937-22.287,1.617-31.861-3.107-30.128-3.107-30.128.778-12.051,2.875-17.966Z" transform="translate(363.561 116.072)" fill="#67647e"/>
    <path id="Path_35" data-name="Path 35" d="M141.037,322.029l-9.827-3.642s12.52-13.707,14.076-6.1Z" transform="translate(327.553 118.828)" opacity="0.1" style="isolation: isolate"/>
    <path id="Path_36" data-name="Path 36" d="M141.037,321.139,131.21,317.5s12.52-13.712,14.076-6.108Z" transform="translate(327.553 119.227)" fill="#e1e7ef"/>
    <path id="Path_37" data-name="Path 37" d="M141.037,321.139,131.21,317.5s12.52-13.712,14.076-6.108Z" transform="translate(327.553 119.227)" opacity="0.03" style="isolation: isolate"/>
    <path id="Path_38" data-name="Path 38" d="M148.45,309.8a.552.552,0,0,1,.4.083Z" transform="translate(319.826 118.915)" opacity="0.1" style="isolation: isolate"/>
    <path id="Path_39" data-name="Path 39" d="M150.18,308.062l26.089,5.628s7.173,1.595,12.355,19.605-7.1,40.088-7.1,40.088l-2.709-2.3,1.357,52.614s-12.04,4.541-15.864.552-3.432-22.624-3.432-22.624-3.664-34.449-5.981-40.121-1.1-46.478-1.1-46.478S151.637,307.747,150.18,308.062Z" transform="translate(319.051 119.695)" fill="#67647e"/>
    <path id="Path_40" data-name="Path 40" d="M151.041,305.772c-.37.342-.795,16.261.8,28.379a154.587,154.587,0,0,0,4.519,21.84l-2.367-48.558s-1.837-2.715-2.952-1.661Zm-3.189-13.712c.64.4,3.432,7.013,2.152,9.728S147.852,292.06,147.852,292.06Zm-24.621-57.916a14.35,14.35,0,0,0-5.733-6,13.616,13.616,0,0,1,4.3,5.049c1.1,2.235.795,4.475-1.4,5.744s-2.875,3.311-3.956,5.667c-.993,2.135-2.1,4.414-4.111,5.606-2.593,1.567-6.009.993-8.713,2.351a6.8,6.8,0,0,0-3.609,6.671,18.986,18.986,0,0,0,.773,3.051,21.67,21.67,0,0,1,.817,6.622.849.849,0,0,1-.083.425.811.811,0,0,1-.673.32,3.865,3.865,0,0,1-1.964-.364,4.575,4.575,0,0,0,3.4,1.319.811.811,0,0,0,.673-.32.9.9,0,0,0,.088-.425,21.9,21.9,0,0,0-.822-6.622,18.987,18.987,0,0,1-.773-3.051,6.8,6.8,0,0,1,3.609-6.666c2.7-1.363,6.119-.789,8.713-2.351,2.014-1.219,3.118-3.476,4.111-5.612,1.1-2.334,1.688-4.354,3.956-5.667S124.345,236.378,123.231,234.144Z" transform="translate(342.044 155.512)" opacity="0.1" style="isolation: isolate"/>
    <ellipse id="Ellipse_12" data-name="Ellipse 12" cx="22.624" cy="3.107" rx="22.624" ry="3.107" transform="translate(898.003 674.978)" fill="#00c7fa" opacity="0.1" style="isolation: isolate"/>
    <ellipse id="Ellipse_13" data-name="Ellipse 13" cx="16.079" cy="2.207" rx="16.079" ry="2.207" transform="translate(727.195 705.029)" fill="#00c7fa" opacity="0.1" style="isolation: isolate"/>
    <ellipse id="Ellipse_14" data-name="Ellipse 14" cx="16.079" cy="2.207" rx="16.079" ry="2.207" transform="translate(583.32 688.668)" fill="#00c7fa" opacity="0.1" style="isolation: isolate"/>
    <path id="Path_41" data-name="Path 41" d="M385.463,758.048a6.42,6.42,0,0,0,2.113-3.195,2.834,2.834,0,0,0-1.479-3.25c-1.357-.519-2.809.425-3.907,1.374s-2.362,2.036-3.8,1.832a5.794,5.794,0,0,0,1.788-5.413,2.325,2.325,0,0,0-.5-1.1c-.756-.806-2.124-.458-3.024.177-2.869,2.014-3.669,5.915-3.686,9.419a18.068,18.068,0,0,1-.055-3.863,3.973,3.973,0,0,0-1.457-3.432,4.414,4.414,0,0,0-2.207-.552,4.583,4.583,0,0,0-3.6,1.026c-1.1,1.17-.811,3.134.138,4.414a14.051,14.051,0,0,0,3.736,2.991,8.273,8.273,0,0,1,2.665,2.544,2.311,2.311,0,0,1,.2.458h8.089a22.737,22.737,0,0,0,4.983-3.427ZM707.011,746.4a6.463,6.463,0,0,0,2.135-3.195,2.849,2.849,0,0,0-1.479-3.25c-1.357-.519-2.809.425-3.907,1.374s-2.362,2.036-3.8,1.832a5.766,5.766,0,0,0,1.788-5.413,2.212,2.212,0,0,0-.5-1.1c-.75-.806-2.119-.458-3.018.177-2.869,2.014-3.669,5.915-3.686,9.419a17.714,17.714,0,0,1-.055-3.863,3.988,3.988,0,0,0-1.457-3.432,4.414,4.414,0,0,0-2.207-.552,4.6,4.6,0,0,0-3.609,1.026c-1.1,1.17-.811,3.134.143,4.414a14.138,14.138,0,0,0,3.736,2.991,8.274,8.274,0,0,1,2.665,2.544,2.673,2.673,0,0,1,.2.458h8.084a22.659,22.659,0,0,0,4.966-3.427ZM524.847,772.2a6.473,6.473,0,0,0,2.119-3.195,2.859,2.859,0,0,0-1.479-3.25c-1.357-.519-2.809.419-3.907,1.374s-2.362,2.031-3.8,1.832a5.778,5.778,0,0,0,1.788-5.413,2.264,2.264,0,0,0-.5-1.1c-.756-.806-2.119-.458-3.024.177-2.869,2.02-3.669,5.915-3.686,9.425a17.722,17.722,0,0,1-.05-3.863,3.974,3.974,0,0,0-1.457-3.432,4.451,4.451,0,0,0-2.207-.552,4.616,4.616,0,0,0-3.609,1.026c-1.1,1.175-.811,3.14.143,4.414a14.427,14.427,0,0,0,3.73,2.991,8.271,8.271,0,0,1,2.693,2.582,2.815,2.815,0,0,1,.2.452h8.078A22.472,22.472,0,0,0,524.847,772.2Z" transform="translate(222.792 -72.194)" fill="#00c7fa"/>
    <path id="Path_42" data-name="Path 42" d="M865.421,296.852c-7.24-.143-13.629-5.275-17.249-11.5a11.59,11.59,0,0,1-1.744-4.922,5.825,5.825,0,0,1,.2-1.181,11.578,11.578,0,0,0,.552-1.8,3.015,3.015,0,0,0,0-.739v-.033a4.325,4.325,0,0,0-1.589-3.543c-.982-.921-2.18-1.589-3.189-2.478-3.112-2.731-4.056-7.113-4.116-11.284v-.221c.033-1.782.177-3.576.16-5.363a22.375,22.375,0,0,0-.132-3.04,10.009,10.009,0,0,0-3.245-6.71c-5.181-4.2-13.894.171-19.252-3.8-1.308-.966-2.362-2.406-3.94-2.759a6.686,6.686,0,0,0-3.6.486c-3.951,1.3-8.354,3.018-9.9,6.859-.883,2.207-.635,4.685-1.446,6.9a39.607,39.607,0,0,1-2.257,4.172,6.522,6.522,0,0,0-.844,3.482,4,4,0,0,0,.259,1.854,4.662,4.662,0,0,0,1.28,1.826,6.112,6.112,0,0,1-.773,1.225c-1.01,1.236-2.56,2.119-3.609,3.311-1.942,2.251-1.871,5.314-.91,7.962s2.682,5.06,3.863,7.637a4.129,4.129,0,0,1,.392,3.487,9.8,9.8,0,0,1-1.744,2.025,6.377,6.377,0,0,0-1.578,3.543c-11.825,2.7-11.83,12.195-11.83,12.195L772.8,320.524s-1.021,2.7-2.207,6.274l-7.56-1.352,5.22,8.8c-1,3.581-1.7,6.9-1.468,8.569,0,0-2.345,11.036,1.826,12.962l9.215,4.144a5.1,5.1,0,0,0,1.275.552l.375.166a.975.975,0,0,0,.861,0h.149a1.17,1.17,0,0,0,.552-.077.993.993,0,0,0,.458-.5.183.183,0,0,0,0-.05l2.759-.8,2.34,2.759c1.054.739,2.086,1.385,3.1,1.964l-3.6,35.977s-.585,47.819-2.345,58.706a30.266,30.266,0,0,0-.414,8.652l-.066.121c.436,3.073,1.567,3.68,1.567,3.68v-.044l.066.044a31.194,31.194,0,0,1,1.893-4.056v.784c-.033,4.061-.16,9.739-.552,13.431-.717,6.279,1.826,27.082,1.826,27.082l.877,18.927a17.5,17.5,0,0,1-2.152,9.215c-2.08,3.78-4.79,9.094-4.966,11.45a3.021,3.021,0,0,0,0,.386l-4.613,5.369s-1.766,2.72,2.207,3.818c2.135.6,5.827,0,8.785-.7a5.871,5.871,0,0,0,4.558-5.711,20.207,20.207,0,0,1,3.763-7.135l.745,4.354,4.966,1.231.635-11.935a5.234,5.234,0,0,0,.342-2.108c.977-8.487-2.3-7.725-2.3-7.725a.551.551,0,0,1,.16.3c-.055-.094-.11-.193-.16-.292-2.014-3.973-1.026-10.484-1.026-10.484s2.61-18.916,3.526-23.909c.646-3.526.381-15.081.166-21.553a6.928,6.928,0,0,0-.028-.778c7.687-.1,17.106-.364,23.727-1v.784l-1.225,44.7a24.575,24.575,0,0,1-1.705,8.31c0,.05-.044.1-.061.149a36.259,36.259,0,0,0-2.472,11.693l-.552,14.2v.392c-.988.381-2.544,1.479-2.588,4.663-.066,4.663,8.15,3.107,8.15,3.107,8.216,0,8.277-8.553,8.277-8.553s.265-7.841.651-13.089-1.236-4.089-1.236-4.089l-.121,14.9V534.212l.127-1.9v-.055l.028-.4,1.021-15.4s7.565-25.659,8.74-30.581c.833-3.493.486-14.032.21-19.865a5.856,5.856,0,0,0-.033-.773c2.34-.21,4.414-.232,5.247-.232h.381s-.392-41.208-1.368-56.758-2.544-29.742-6.462-34.018c-2.362-2.582-5.656-10.561-7.9-16.471a82.861,82.861,0,0,0,14.485,4.745c12.393,2.593,10.7-8.167,10.7-8.167L858.314,334h.083a103.346,103.346,0,0,0-1.368-15.908,47.184,47.184,0,0,0-3.189-11.588c1.346-.513,2.671-1.1,3.973-1.655,3.366-1.484,7.173-3.592,7.648-7.223h-.166a5.012,5.012,0,0,0,.127-.772ZM788.6,326.285c.033,2.1-.05,5.744-.171,9.778l-3.934-5.253,3.945-6.4Zm54.385,18.6-6.555-2.108a29.6,29.6,0,0,1,4.05-5.01l.552-.552-.2.044.32-.287.188-.044-.3.287.359-.072a11.206,11.206,0,0,0,2.235,4.492c2.34,2.6-.662,3.25-.662,3.25Z" transform="translate(44.368 151.371)" fill="url(#linear-gradient-5)"/>
    <path id="Path_43" data-name="Path 43" d="M830.283,774.95l-.773,14.534-4.889-1.219-1.032-6.048Z" transform="translate(17.225 -89.571)" fill="#a27772"/>
    <path id="Path_44" data-name="Path 44" d="M830.283,774.95l-.773,14.534-4.889-1.219-1.032-6.048Z" transform="translate(17.225 -89.571)" opacity="0.1" style="isolation: isolate"/>
    <path id="Path_45" data-name="Path 45" d="M868.24,729.456,875.7,731l5.518-4.889V712.345l.121-1.882v-.055l.028-.4,1-15.285s7.46-25.476,8.619-30.349c.822-3.471.48-13.938.21-19.721-.11-2.373-.21-3.956-.21-3.956l-16.466-3.989-.348,12.691-1.2,44.364a24.479,24.479,0,0,1-1.689,8.249l-.055.149a36.013,36.013,0,0,0-2.389,11.626l-.552,14.1v.392Z" transform="translate(-2.787 -27.611)" fill="#cc818c"/>
    <path id="Path_46" data-name="Path 46" d="M881.362,769.556v.392l.028-.4ZM868.24,789l7.46,1.545,5.518-4.889v-1.17a1.567,1.567,0,0,1-.795,1.264l-.077.044a14.836,14.836,0,0,1-8.376,1.655l-2.914-.248a3.066,3.066,0,0,0-.767.188v.392Z" transform="translate(-2.787 -87.15)" opacity="0.1" style="isolation: isolate"/>
    <path id="Path_47" data-name="Path 47" d="M878.323,786.408l.077-.044a1.562,1.562,0,0,0,.8-1.368l.121-14.821s1.611-1.142,1.225,4.067-.646,12.995-.646,12.995-.061,8.492-8.167,8.492c0,0-8.106,1.539-8.045-3.09s3.349-4.823,3.349-4.823l2.908.254a14.9,14.9,0,0,0,8.376-1.661Z" transform="translate(-0.748 -87.382)" fill="#b07473"/>
    <path id="Path_48" data-name="Path 48" d="M797.823,730.231c.193,3.344,10.032,1.413,10.032,1.413l6.621-12.862s5.518-4.249,2.759-7.979a5.7,5.7,0,0,1-.408-.635v-.033c-.061-.1-.11-.2-.166-.3-1.986-3.94-1.01-10.4-1.01-10.4s2.571-18.761,3.476-23.727c.635-3.5.375-14.976.16-21.4-.083-2.665-.16-4.464-.16-4.464l-16.344-4.37v4.872c-.033,4.028-.155,9.667-.552,13.331-.706,6.241,1.8,26.889,1.8,26.889l.866,18.794a17.433,17.433,0,0,1-2.169,9.121c-2.053,3.752-4.723,9.033-4.911,11.372a2.191,2.191,0,0,0,0,.381Z" transform="translate(28.778 -31.537)" fill="#cc818c"/>
    <path id="Path_49" data-name="Path 49" d="M797.83,782.783c.193,3.344,10.032,1.413,10.032,1.413l6.621-12.862s5.518-4.249,2.759-7.979a5.7,5.7,0,0,1-.408-.635c-.088,1.948-2.207,6.809-2.207,6.809s-5.468,10.942-7.173,13.447-9.3-.464-9.579-.552A2.24,2.24,0,0,0,797.83,782.783Z" transform="translate(28.771 -84.089)" opacity="0.1" style="isolation: isolate"/>
    <path id="Path_50" data-name="Path 50" d="M812.678,762.076s3.234-.75,2.273,7.675a5.435,5.435,0,0,1-2.566,4.817,18.407,18.407,0,0,0-7.692,10.672,5.827,5.827,0,0,1-4.492,5.678c-2.919.679-6.561,1.28-8.669.69-3.923-1.1-2.207-3.791-2.207-3.791l4.5-5.341s7.847,3.09,9.585.579,7.173-13.447,7.173-13.447,3.073-6.826,2.091-7.532Z" transform="translate(32.75 -83.793)" fill="#b07473"/>
    <path id="Path_51" data-name="Path 51" d="M847,639.48l-.348,12.691c4.414-.425,7.526-1.021,8.067-1.854,1.153-1.793,5.369-2.555,8.956-2.864-.11-2.373-.21-3.956-.21-3.956Zm-40.215,9.7a6.108,6.108,0,0,1,1.8-2.174c1.738-.966,1.551,6.175,1.551,6.175s5.766.055,13.155-.039c-.083-2.671-.16-4.464-.16-4.464l-16.344-4.37s.022,2.036-.006,4.872Z" transform="translate(24.755 -28.852)" opacity="0.1" style="isolation: isolate"/>
    <path id="Path_52" data-name="Path 52" d="M802.018,563.256s1.931-5.226,3.664-6.186,1.551,6.175,1.551,6.175,42.455.386,44.58-2.9,14.474-3.085,14.474-3.085-.386-40.916-1.352-56.355-2.511-29.527-6.368-33.77c-2.5-2.759-6.07-11.637-8.244-17.564-1.2-3.239-1.987-5.6-1.987-5.6L807.812,446.3l-.331,3.278-4.3,43.04s-.552,47.454-2.318,58.281S802.018,563.256,802.018,563.256Z" transform="translate(27.667 58.772)" fill="#444053"/>
    <g id="Group_2" data-name="Group 2" transform="translate(828.057 502.779)" opacity="0.1">
      <path id="Path_59" data-name="Path 59" d="M848.62,560.4c2.119-3.278,14.474-3.084,14.474-3.084s-.386-40.916-1.352-56.355-2.511-29.527-6.368-33.77c-2.5-2.759-6.07-11.637-8.244-17.564-1-2.72-1.722-4.817-1.926-5.419l3.145-.177s.789,2.356,1.987,5.6c2.207,5.926,5.744,14.816,8.244,17.564,3.863,4.243,5.4,18.331,6.368,33.77s1.33,56.327,1.33,56.327-12.349-.2-14.468,3.112c-1.815,2.8-33.058,2.93-42.13,2.908C821.311,563.251,846.964,562.9,848.62,560.4Zm-46.147-3.311c.784-.436,1.175.773,1.368,2.207a31.315,31.315,0,0,0-1.826,3.951s-1.1-.6-1.545-3.653A6.956,6.956,0,0,1,802.473,557.087Z" transform="translate(-800.47 -444.03)"/>
    </g>
    <path id="Path_53" data-name="Path 53" d="M819.547,259.856c-2.8,3.829.033,9.265-2.974,12.984-.993,1.23-2.522,2.108-3.559,3.311-1.92,2.24-1.843,5.275-.9,7.907s2.649,5.021,3.818,7.582a4.132,4.132,0,0,1,.392,3.46,9.13,9.13,0,0,1-1.722,2.014,7.261,7.261,0,0,0-.949,7.7c1.037,2.538,3.029,4.74,4.966,6.881a3.394,3.394,0,0,0,4.944,1.131,20.108,20.108,0,0,0,9.7-11.395,20.325,20.325,0,0,0-.828-13.988c-1.655-3.9-4.348-7.642-4.37-11.77,0-3.272,1.683-6.4,1.981-9.656.364-3.956-1.981-10.247-6.76-11.974.315,2.555-2.29,3.874-3.736,5.816Z" transform="translate(22.658 143.904)" fill="#585268"/>
    <path id="Path_54" data-name="Path 54" d="M819.547,259.856c-2.8,3.829.033,9.265-2.974,12.984-.993,1.23-2.522,2.108-3.559,3.311-1.92,2.24-1.843,5.275-.9,7.907s2.649,5.021,3.818,7.582a4.132,4.132,0,0,1,.392,3.46,9.13,9.13,0,0,1-1.722,2.014,7.261,7.261,0,0,0-.949,7.7c1.037,2.538,3.029,4.74,4.966,6.881a3.394,3.394,0,0,0,4.944,1.131,20.108,20.108,0,0,0,9.7-11.395,20.325,20.325,0,0,0-.828-13.988c-1.655-3.9-4.348-7.642-4.37-11.77,0-3.272,1.683-6.4,1.981-9.656.364-3.956-1.981-10.247-6.76-11.974.315,2.555-2.29,3.874-3.736,5.816Zm31.116,139.119c-5.617.3-10.9,2.709-15.82,5.441s-9.673,5.849-14.965,7.769m27.292.022a23.224,23.224,0,0,0-14.589,7.091c-1.363,1.446-2.538,3.068-3.962,4.453a17.656,17.656,0,0,1-7.819,4.414m27.524-5.893A25.5,25.5,0,0,0,836.6,429.34c-.861.927-1.655,1.926-2.505,2.847-4.652,4.966-11.218,7.642-17.558,10.148" transform="translate(22.658 143.904)" opacity="0.1" style="isolation: isolate"/>
    <path id="Path_55" data-name="Path 55" d="M859.287,305.611a115.7,115.7,0,0,0,1.159,13.409c.519,3.167,1.258,5.987,2.318,7.24,3.085,3.669-15.053,8.591-15.053,8.591L837,326.573s8.492-7.819,4.536-15.45,17.751-5.512,17.751-5.512Z" transform="translate(11.215 120.911)" fill="#cc818c"/>
    <path id="Path_56" data-name="Path 56" d="M813.32,449.575h42.841c-1.2-3.239-1.986-5.6-1.986-5.6L813.651,446.3Z" transform="translate(21.828 58.772)" opacity="0.1" style="isolation: isolate"/>
    <path id="Path_57" data-name="Path 57" d="M801.53,399.334h45.8a15.865,15.865,0,0,1,1.837-12.139,26.814,26.814,0,0,1,4.8-6.224l.314-.281,16-3.548.861-.188s.127-29.074-10.164-33.064a60.35,60.35,0,0,1-16.471-9.381l-14.148,4.37-10.423-5.27c-3.344,3.6-12.222,2.207-12.222,2.207-14.54,1.655-14.54,12.609-14.54,12.609s8.492,19.815,9.138,19.815-.778,31.094-.778,31.094Z" transform="translate(30.859 108.24)" fill="#67647e"/>
    <path id="Path_58" data-name="Path 58" d="M826.81,410.408s-9.342-2.069-12.52-5.689m59.616-5.159-10.815,8.878a17.893,17.893,0,0,0,.359,2.086l.314-.281,16-3.548Zm-29.333,26.249s2.373,1.335,6,3.085H856.8a15.866,15.866,0,0,1,1.837-12.139l-11-3.559c3.752,3.476-3.068,12.614-3.068,12.614Z" transform="translate(21.393 78.681)" opacity="0.1" style="isolation: isolate"/>
    <path id="Path_59-2" data-name="Path 59" d="M789.136,354.1l-6.434,3.471L776.4,373.523s-6.561,17.5-5.921,22.133c0,0-2.312,10.931,1.8,12.862l10.738,4.856A.993.993,0,0,0,784.3,412c-1.528-2.9-3.206-7.422-.552-9.932l-3.09-6.428,11.185-18.253,3.725-6.279Z" transform="translate(41.322 99.056)" fill="#67647e"/>
    <path id="Path_60" data-name="Path 60" d="M830.677,409.039c.552,2.273,2.439,5.766,8.663,7.085l6.853,5.6,7.267,3.311,2.958,1.341,1.258-9.072-2.853-1.562-3.311-1.815s-7.5-13.6-19.379-7.852A2.632,2.632,0,0,0,830.677,409.039Z" transform="translate(14.078 76.397)" opacity="0.1" style="isolation: isolate"/>
    <path id="Path_61" data-name="Path 61" d="M831.388,407.645c.552,2.273,2.439,5.766,8.663,7.085l6.853,5.6,7.267,3.311,2.958,1.341,1.258-9.071-2.853-1.556-3.311-1.821s-7.5-13.591-19.379-7.852a2.632,2.632,0,0,0-1.457,2.963Z" transform="translate(13.759 77.019)" fill="#cc818c"/>
    <circle id="Ellipse_15" data-name="Ellipse 15" cx="16.598" cy="16.598" r="16.598" transform="translate(841.935 405.101)" opacity="0.1" style="isolation: isolate"/>
    <circle id="Ellipse_16" data-name="Ellipse 16" cx="16.598" cy="16.598" r="16.598" transform="translate(841.935 404.714)" fill="#cc818c"/>
    <path id="Path_62" data-name="Path 62" d="M870.3,346.879l-4.966-9.7s7.306-2.947,7.835-6.368,7,4.006,5.6,6.467S870.3,346.879,870.3,346.879Z" transform="translate(-1.483 109.891)" opacity="0.1" style="isolation: isolate"/>
    <path id="Path_63" data-name="Path 63" d="M870.3,345.48l-4.966-9.7s7.306-2.947,7.835-6.368,7,4.012,5.6,6.467S870.3,345.48,870.3,345.48Z" transform="translate(-1.483 110.519)" fill="#67647e"/>
    <path id="Path_64" data-name="Path 64" d="M784.144,401.741l27.59,37.075s-10.164,5.518-24.191-4.376l-6.07-7.2L764.23,398.16Z" transform="translate(43.831 79.308)" fill="#f6f8fb"/>
    <path id="Path_65" data-name="Path 65" d="M789.933,433.418l2.511-.066s15.34-14.9,19.1-7.361S802,440.558,802,440.558l-4.05,2.207-5.308,1.545-3.377-4.536Z" transform="translate(32.612 67.789)" fill="#cc818c"/>
    <path id="Path_66" data-name="Path 66" d="M790.816,447.961a3.754,3.754,0,0,1,.066,2.593.982.982,0,0,1-.458.5,1.1,1.1,0,0,1-.552.077,5.27,5.27,0,0,1-3.46-1.716,15.607,15.607,0,0,1-2.246-3.245,5.926,5.926,0,0,1-1.148-3.863c.27-1.479,1.589-2.505,2.847-3.311,2.544-1.683,2.6.276,3.184,2.439Z" transform="translate(35.432 61.291)" opacity="0.1" style="isolation: isolate"/>
    <path id="Path_67" data-name="Path 67" d="M790.116,447.961a3.754,3.754,0,0,1,.066,2.593.982.982,0,0,1-.458.5,1.1,1.1,0,0,1-.552.077,5.269,5.269,0,0,1-3.46-1.716,15.6,15.6,0,0,1-2.246-3.245,5.925,5.925,0,0,1-1.148-3.863c.27-1.479,1.589-2.505,2.847-3.311,2.544-1.683,2.6.276,3.184,2.439Z" transform="translate(35.746 61.291)" fill="#67647e"/>
    <path id="Path_68" data-name="Path 68" d="M809.72,394.539l1.286-2.169L809.88,396.4l-.16-1.86Zm34.769,24.2,2.958,1.341L848.7,411l-2.853-1.556c1.948,2.24.243,6.4-1.363,9.287Zm11.869-10.528s-9.552.579-13.6-2.025" transform="translate(23.442 81.904)" opacity="0.1" style="isolation: isolate"/>
    <g id="Group_3" data-name="Group 3" transform="translate(837.951 442.623)" opacity="0.1">
      <path id="Path_76" data-name="Path 76" d="M859.062,388.589a26.937,26.937,0,0,1,4.8-6.224,13.22,13.22,0,0,1,1.413-.773l14.9-3.057.861-.188s.132-29.074-10.164-33.064a62.164,62.164,0,0,1-16.052-9.044l1.131-.348a59.922,59.922,0,0,0,16.466,9.38c10.291,3.978,10.175,33.075,10.175,33.075h-1.545l-15.252,2.919-.861.822a29.426,29.426,0,0,0-4.872,6.439,16.163,16.163,0,0,0-1.275,12.206h-1.578A16.056,16.056,0,0,1,859.062,388.589ZM818.4,337.278c.248-.033.486-.072.739-.1a27.253,27.253,0,0,0,3.151.259,28.372,28.372,0,0,1-3.89-.16Zm21.84,2.985-9.425-4.751a5.232,5.232,0,0,0,.552-.5l9.833,4.966Z" transform="translate(-818.4 -335.01)"/>
    </g>
    <path id="Path_69" data-name="Path 69" d="M899.2,398.16l6.307,7.725,1.286,20.968s1.655,10.677-10.55,8.106-26.376-10.55-26.376-10.55,6.82-9.138,3.09-12.609l17.5,5.661s2.958-.646.64-3.217-2.726-7.206-2.726-7.206Z" transform="translate(-3.518 79.308)" fill="#67647e"/>
    <path id="Path_70" data-name="Path 70" d="M879.364,349.882l3.476,3.984A5,5,0,0,1,879.364,349.882Zm-5.915-.646,5.4,6.947-2.7.646-2.7-7.593Zm-53.883-85.263a5.616,5.616,0,0,1,.552-4.525,36.829,36.829,0,0,0,2.207-4.144c.8-2.207.552-4.679,1.424-6.853,1.528-3.807,5.871-5.518,9.767-6.8a6.614,6.614,0,0,1,3.554-.486c1.556.375,2.6,1.8,3.863,2.759,5.286,3.94,13.878-.4,18.987,3.774a9.952,9.952,0,0,1,3.2,6.66,59.865,59.865,0,0,1-.028,7.576c-.083,4.414.739,9.259,4.056,12.189,1,.883,2.174,1.551,3.145,2.461a4.321,4.321,0,0,1,1.567,3.515,11.975,11.975,0,0,1-.552,1.782c-.662,2.306.32,4.751,1.517,6.831,3.576,6.18,9.872,11.273,17.017,11.417-.48,3.6-4.221,5.695-7.543,7.173-4.232,1.882-8.68,3.73-13.3,3.493s-9.447-3.195-10.269-7.725c-.281-1.562-.243-3.476-1.6-4.3-.817-.5-1.876-.37-2.759-.745-1.275-.552-1.909-1.953-2.329-3.278a29.576,29.576,0,0,1-1.374-8.409c-.055-3.383.4-7.074-1.523-9.861-1.777-2.577-4.933-3.863-6.98-6.257-1.887-2.207-3.945-4.845-7.041-5.264-4.161-.6-13.022,5.22-15.555-.982Z" transform="translate(19.153 149.719)" opacity="0.1" style="isolation: isolate"/>
    <path id="Path_71" data-name="Path 71" d="M819.565,262.573a5.616,5.616,0,0,1,.552-4.525,36.833,36.833,0,0,0,2.207-4.144c.8-2.207.552-4.679,1.424-6.853,1.528-3.807,5.871-5.518,9.767-6.8a6.614,6.614,0,0,1,3.554-.486c1.556.375,2.6,1.8,3.863,2.759,5.286,3.945,13.878-.4,18.987,3.774a9.964,9.964,0,0,1,3.2,6.66,59.864,59.864,0,0,1-.028,7.576c-.083,4.414.739,9.259,4.056,12.189,1,.883,2.174,1.551,3.145,2.461a4.321,4.321,0,0,1,1.567,3.515,12.187,12.187,0,0,1-.552,1.788c-.662,2.3.32,4.751,1.517,6.826,3.576,6.18,9.872,11.273,17.017,11.417-.48,3.6-4.221,5.695-7.543,7.173-4.232,1.887-8.68,3.73-13.3,3.493s-9.447-3.195-10.269-7.753c-.281-1.562-.243-3.476-1.6-4.3-.817-.5-1.876-.37-2.759-.745-1.275-.552-1.909-1.953-2.329-3.278a29.579,29.579,0,0,1-1.374-8.409c-.055-3.383.4-7.074-1.523-9.861-1.777-2.577-4.933-3.863-6.98-6.257-1.887-2.207-3.945-4.845-7.041-5.264-4.161-.546-13.022,5.248-15.555-.955Z" transform="translate(19.153 150.347)" fill="#585268"/>
    <path id="Path_72" data-name="Path 72" d="M838.453,346.06l9.513-7.725s-6.511-3.531-7.289-6.544-5.987,1.429-5.457,4.133,3.234,10.136,3.234,10.136Z" transform="translate(12.03 109.507)" opacity="0.1" style="isolation: isolate"/>
    <path id="Path_73" data-name="Path 73" d="M839.153,343.96l9.513-7.725s-6.511-3.531-7.289-6.544-5.987,1.429-5.457,4.133,3.234,10.136,3.234,10.136Z" transform="translate(11.716 110.449)" fill="#67647e"/>
    <circle id="Ellipse_17" data-name="Ellipse 17" cx="0.756" cy="0.756" r="0.756" transform="translate(859.995 452.395)" opacity="0.1" style="isolation: isolate"/>
    <circle id="Ellipse_18" data-name="Ellipse 18" cx="0.756" cy="0.756" r="0.756" transform="translate(859.995 456.6)" opacity="0.1" style="isolation: isolate"/>
    <circle id="Ellipse_19" data-name="Ellipse 19" cx="0.756" cy="0.756" r="0.756" transform="translate(859.995 460.799)" opacity="0.1" style="isolation: isolate"/>
    <g id="Group_4" data-name="Group 4" transform="translate(838.549 395.731)" opacity="0.1">
      <path id="Path_82" data-name="Path 82" d="M823.482,256.5c.75-2.069.59-4.387,1.291-6.467a7.464,7.464,0,0,0-.8,1.479c-.872,2.174-.629,4.657-1.424,6.859,0,.039-.039.083-.055.127A12.2,12.2,0,0,0,823.482,256.5Zm60.03,52c-4.232,1.887-8.68,3.73-13.309,3.493s-9.441-3.195-10.263-7.753c-.281-1.562-.243-3.476-1.6-4.3-.817-.5-1.876-.37-2.759-.745-1.28-.552-1.909-1.953-2.329-3.278a29.579,29.579,0,0,1-1.374-8.42c-.055-3.383.392-7.074-1.523-9.861-1.777-2.577-4.933-3.863-6.98-6.257-1.893-2.207-3.945-4.845-7.046-5.264-4.249-.552-13.116,5.242-15.643-.96a4.874,4.874,0,0,1,.16-3.587c-.182.309-.359.618-.519.933a5.447,5.447,0,0,0-.552,4.525c2.533,6.2,11.395.381,15.649.96,3.1.419,5.154,3.074,7.046,5.264,2.047,2.373,5.2,3.68,6.975,6.263,1.92,2.759,1.473,6.478,1.528,9.855a29.437,29.437,0,0,0,1.369,8.415c.419,1.319,1.054,2.759,2.329,3.278.883.37,1.942.248,2.759.745,1.352.817,1.319,2.759,1.595,4.293.822,4.558,5.645,7.521,10.269,7.758s9.077-1.611,13.3-3.5c3.046-1.352,6.439-3.234,7.35-6.313C888.467,306.065,885.884,307.439,883.511,308.493Z" transform="translate(-819.483 -250.03)"/>
    </g>
  </g>
</svg>
