<?xml version="1.0" encoding="utf-8"?>
<!-- Generator: Adobe Illustrator 26.0.1, SVG Export Plug-In . SVG Version: 6.00 Build 0)  -->
<svg version="1.1" id="katman_1" xmlns="http://www.w3.org/2000/svg" xmlns:xlink="http://www.w3.org/1999/xlink" x="0px" y="0px"
	 viewBox="0 0 1035 739" style="enable-background:new 0 0 1035 739;" xml:space="preserve">
<style type="text/css">
	.st0{filter:url(#a);}
	.st1{fill-rule:evenodd;clip-rule:evenodd;}
	.st2{fill-rule:evenodd;clip-rule:evenodd;fill:#FFFFFF;}
	.st3{filter:url(#c);}
	.st4{fill-rule:evenodd;clip-rule:evenodd;fill:#00252E;}
	.st5{fill-rule:evenodd;clip-rule:evenodd;fill:#E1E8EE;}
	.st6{fill-rule:evenodd;clip-rule:evenodd;fill:#D8D8D8;}
	.st7{fill-rule:evenodd;clip-rule:evenodd;fill:url(#SVGID_1_);}
	.st8{fill-rule:evenodd;clip-rule:evenodd;fill:#A7B9C8;}
	.st9{fill-rule:evenodd;clip-rule:evenodd;fill:url(#SVGID_00000088093474055109655350000004420146950216880262_);}
	.st10{fill-rule:evenodd;clip-rule:evenodd;fill:url(#SVGID_00000168087286720190769970000007278162167254150579_);}
	.st11{filter:url(#h);}
	.st12{filter:url(#j);}
	.st13{fill-rule:evenodd;clip-rule:evenodd;fill:url(#SVGID_00000132081002356169300800000013681642838524886203_);}
	.st14{fill-rule:evenodd;clip-rule:evenodd;fill:url(#SVGID_00000055687295938147040990000018118775551913482137_);}
	.st15{fill-rule:evenodd;clip-rule:evenodd;fill:url(#SVGID_00000052089257437011797730000003783977285550303159_);}
	.st16{fill-rule:evenodd;clip-rule:evenodd;fill:url(#SVGID_00000088840612843070739070000001423004744041456039_);}
	.st17{fill-rule:evenodd;clip-rule:evenodd;fill:url(#SVGID_00000158028063010969033380000006138421243906413489_);}
	.st18{fill-rule:evenodd;clip-rule:evenodd;fill:url(#SVGID_00000067202974110418544270000017843287767797394829_);}
	.st19{fill-rule:evenodd;clip-rule:evenodd;fill:url(#SVGID_00000032634941386282112810000008052523102929230255_);}
	.st20{fill-rule:evenodd;clip-rule:evenodd;fill:url(#SVGID_00000068668986784703276700000015671571578013744281_);}
</style>
<filter  filterUnits="objectBoundingBox" height="149.4%" id="j" width="108.4%" x="-4.2%" y="-24.7%">
	<feOffset  in="SourceAlpha" result="shadowOffsetOuter1"></feOffset>
	<feGaussianBlur  in="shadowOffsetOuter1" result="shadowBlurOuter1" stdDeviation="4.5"></feGaussianBlur>
	<feColorMatrix  in="shadowBlurOuter1" values="0 0 0 0 0 0 0 0 0 0.145098039 0 0 0 0 0.180392157 0 0 0 0.181838768 0">
		</feColorMatrix>
</filter>
<filter  filterUnits="objectBoundingBox" height="105.3%" id="h" width="108.4%" x="-4.2%" y="-2.6%">
	<feOffset  in="SourceAlpha" result="shadowOffsetOuter1"></feOffset>
	<feGaussianBlur  in="shadowOffsetOuter1" result="shadowBlurOuter1" stdDeviation="4.5"></feGaussianBlur>
	<feColorMatrix  in="shadowBlurOuter1" values="0 0 0 0 0 0 0 0 0 0.145098039 0 0 0 0 0.180392157 0 0 0 0.181838768 0">
		</feColorMatrix>
</filter>
<filter  filterUnits="objectBoundingBox" height="146.9%" id="c" width="103.1%" x="-1.6%" y="-23.4%">
	<feOffset  in="SourceAlpha" result="shadowOffsetOuter1"></feOffset>
	<feGaussianBlur  in="shadowOffsetOuter1" result="shadowBlurOuter1" stdDeviation="5"></feGaussianBlur>
	<feColorMatrix  in="shadowBlurOuter1" values="0 0 0 0 0 0 0 0 0 0.145098039 0 0 0 0 0.180392157 0 0 0 0.181838768 0">
		</feColorMatrix>
</filter>
<filter  filterUnits="objectBoundingBox" height="105%" id="a" width="103.1%" x="-1.6%" y="-2.5%">
	<feOffset  in="SourceAlpha" result="shadowOffsetOuter1"></feOffset>
	<feGaussianBlur  in="shadowOffsetOuter1" result="shadowBlurOuter1" stdDeviation="5"></feGaussianBlur>
	<feColorMatrix  in="shadowBlurOuter1" values="0 0 0 0 0 0 0 0 0 0.145098039 0 0 0 0 0.180392157 0 0 0 0.181838768 0">
		</feColorMatrix>
</filter>
<g>
	<g transform="translate(10 10)">
		<g class="st0">
			<path id="b_00000085242700616299835840000018444217762628904583_" class="st1" d="M20,0h920c11,0,20,9,20,20v560c0,11-9,20-20,20
				H20c-11,0-20-9-20-20V20C0,9,9,0,20,0z"/>
		</g>
		<g>
			<path id="b_00000135687778012988693950000001781415314115124390_" class="st2" d="M20,0h920c11,0,20,9,20,20v560c0,11-9,20-20,20
				H20c-11,0-20-9-20-20V20C0,9,9,0,20,0z"/>
		</g>
		<g class="st3">
			<path id="d_00000005957630552545384020000002859265562996777871_" class="st1" d="M20,0h920c11,0,20,9,20,20v44H0V20
				C0,9,9,0,20,0z"/>
		</g>
		<g>
			<path id="d_00000127757440269479267630000007396061929120623490_" class="st4" d="M20,0h920c11,0,20,9,20,20v44H0V20
				C0,9,9,0,20,0z"/>
		</g>
		<path class="st5" d="M77,20h190c2.8,0,5,2.2,5,5v14c0,2.8-2.2,5-5,5H77c-2.8,0-5-2.2-5-5V25C72,22.2,74.2,20,77,20z"/>
		<g transform="translate(864 22)">
			<path class="st6" d="M2,0h28c1.1,0,2,0.9,2,2l0,0c0,1.1-0.9,2-2,2H2C0.9,4,0,3.1,0,2l0,0C0,0.9,0.9,0,2,0z"/>
			<path class="st6" d="M2,8h28c1.1,0,2,0.9,2,2l0,0c0,1.1-0.9,2-2,2H2c-1.1,0-2-0.9-2-2l0,0C0,8.9,0.9,8,2,8z"/>
			<path class="st6" d="M2,16h28c1.1,0,2,0.9,2,2l0,0c0,1.1-0.9,2-2,2H2c-1.1,0-2-0.9-2-2l0,0C0,16.9,0.9,16,2,16z"/>
		</g>
		<g transform="translate(72 138)">
			
				<linearGradient id="SVGID_1_" gradientUnits="userSpaceOnUse" x1="-519.2144" y1="760.4672" x2="-518.6025" y2="759.0495" gradientTransform="matrix(96 0 0 -96 49862 72982)">
				<stop  offset="0" style="stop-color:#FAD961"/>
				<stop  offset="1" style="stop-color:#FF52C1"/>
			</linearGradient>
			<circle class="st7" cx="48" cy="48" r="48"/>
			<g transform="translate(152 12)">
				<path class="st5" d="M3,0h109c1.7,0,3,1.3,3,3v10c0,1.7-1.3,3-3,3H3c-1.7,0-3-1.3-3-3V3C0,1.3,1.3,0,3,0z"/>
				<path class="st5" d="M3,32h394c1.7,0,3,1.3,3,3v2c0,1.7-1.3,3-3,3H3c-1.7,0-3-1.3-3-3v-2C0,33.3,1.3,32,3,32z"/>
				<path class="st5" d="M3,48h360.7c1.7,0,3,1.3,3,3v2c0,1.7-1.3,3-3,3H3c-1.7,0-3-1.3-3-3v-2C0,49.3,1.3,48,3,48z"/>
				<path class="st5" d="M3,64h327.3c1.7,0,3,1.3,3,3v2c0,1.7-1.3,3-3,3H3c-1.7,0-3-1.3-3-3v-2C0,65.3,1.3,64,3,64z"/>
			</g>
			<g transform="translate(600 36)">
				<circle class="st8" cx="12" cy="12" r="12"/>
				<circle class="st8" cx="76" cy="12" r="12"/>
				<circle class="st8" cx="44" cy="12" r="12"/>
				<circle class="st8" cx="108" cy="12" r="12"/>
				<circle class="st8" cx="140" cy="12" r="12"/>
			</g>
		</g>
		<g transform="translate(72 274)">
			
				<linearGradient id="SVGID_00000000917338370845095040000005762391188900219284_" gradientUnits="userSpaceOnUse" x1="-518.5889" y1="624.1111" x2="-518.5889" y2="623.1111" gradientTransform="matrix(90 0 0 -90 46718 56170)">
				<stop  offset="0" style="stop-color:#00C7FA"/>
				<stop  offset="1" style="stop-color:#007DFA"/>
			</linearGradient>
			
				<circle style="fill-rule:evenodd;clip-rule:evenodd;fill:url(#SVGID_00000000917338370845095040000005762391188900219284_);" cx="45" cy="45" r="45"/>
			<g transform="translate(149 9)">
				<path class="st5" d="M3,0h109c1.7,0,3,1.3,3,3v10c0,1.7-1.3,3-3,3H3c-1.7,0-3-1.3-3-3V3C0,1.3,1.3,0,3,0z"/>
				<path class="st5" d="M3,32h394c1.7,0,3,1.3,3,3v2c0,1.7-1.3,3-3,3H3c-1.7,0-3-1.3-3-3v-2C0,33.3,1.3,32,3,32z"/>
				<path class="st5" d="M3,48h360.7c1.7,0,3,1.3,3,3v2c0,1.7-1.3,3-3,3H3c-1.7,0-3-1.3-3-3v-2C0,49.3,1.3,48,3,48z"/>
				<path class="st5" d="M3,64h327.3c1.7,0,3,1.3,3,3v2c0,1.7-1.3,3-3,3H3c-1.7,0-3-1.3-3-3v-2C0,65.3,1.3,64,3,64z"/>
			</g>
			<g transform="translate(597 33)">
				<circle class="st8" cx="12" cy="12" r="12"/>
				<circle class="st8" cx="76" cy="12" r="12"/>
				<circle class="st8" cx="44" cy="12" r="12"/>
			</g>
		</g>
		<g transform="translate(72 417)">
			
				<linearGradient id="SVGID_00000176757846647749991900000010761556534786084231_" gradientUnits="userSpaceOnUse" x1="-518.849" y1="481.0837" x2="-518.2367" y2="479.9713" gradientTransform="matrix(90 0 0 -90 46718 43300)">
				<stop  offset="0" style="stop-color:#FF52C1"/>
				<stop  offset="1" style="stop-color:#9952FF"/>
			</linearGradient>
			
				<circle style="fill-rule:evenodd;clip-rule:evenodd;fill:url(#SVGID_00000176757846647749991900000010761556534786084231_);" cx="45" cy="45" r="45"/>
			<g transform="translate(149 9)">
				<path class="st5" d="M3,0h109c1.7,0,3,1.3,3,3v10c0,1.7-1.3,3-3,3H3c-1.7,0-3-1.3-3-3V3C0,1.3,1.3,0,3,0z"/>
				<path class="st5" d="M3,32h394c1.7,0,3,1.3,3,3v2c0,1.7-1.3,3-3,3H3c-1.7,0-3-1.3-3-3v-2C0,33.3,1.3,32,3,32z"/>
				<path class="st5" d="M3,48h360.7c1.7,0,3,1.3,3,3v2c0,1.7-1.3,3-3,3H3c-1.7,0-3-1.3-3-3v-2C0,49.3,1.3,48,3,48z"/>
				<path class="st5" d="M3,64h327.3c1.7,0,3,1.3,3,3v2c0,1.7-1.3,3-3,3H3c-1.7,0-3-1.3-3-3v-2C0,65.3,1.3,64,3,64z"/>
			</g>
			<g transform="translate(597 33)">
				<circle class="st8" cx="12" cy="12" r="12"/>
				<circle class="st8" cx="76" cy="12" r="12"/>
				<circle class="st8" cx="44" cy="12" r="12"/>
				<circle class="st8" cx="108" cy="12" r="12"/>
			</g>
		</g>
	</g>
	<g transform="translate(706 218)">
		<g class="st11">
			<path id="i_00000144308834141157954960000011500613988946353541_" class="st1" d="M17.1,0h285.9c9.4,0,17.1,7.6,17.1,17.1v477.9
				c0,9.4-7.6,17.1-17.1,17.1H17.1C7.6,512,0,504.4,0,494.9V17.1C0,7.6,7.6,0,17.1,0z"/>
		</g>
		<g>
			<path id="i_00000142155306582786034510000000929411218692423826_" class="st2" d="M17.1,0h285.9c9.4,0,17.1,7.6,17.1,17.1v477.9
				c0,9.4-7.6,17.1-17.1,17.1H17.1C7.6,512,0,504.4,0,494.9V17.1C0,7.6,7.6,0,17.1,0z"/>
		</g>
	</g>
	<g transform="translate(706 218)">
		<g class="st12">
			<path id="k_00000001655867494897315220000009796589728583643566_" class="st1" d="M17.1,0h285.9c9.4,0,17.1,7.6,17.1,17.1v37.5H0
				V17.1C0,7.6,7.6,0,17.1,0z"/>
		</g>
		<g>
			<path id="k_00000040541923244297495290000011239289428856580239_" class="st4" d="M17.1,0h285.9c9.4,0,17.1,7.6,17.1,17.1v37.5H0
				V17.1C0,7.6,7.6,0,17.1,0z"/>
		</g>
	</g>
	<g transform="translate(738.133 236.773)">
		<path class="st5" d="M4.3,0h95.5c2.4,0,4.3,1.9,4.3,4.3v11.9c0,2.4-1.9,4.3-4.3,4.3H4.3c-2.4,0-4.3-1.9-4.3-4.3V4.3
			C0,1.9,1.9,0,4.3,0z"/>
		<g transform="translate(226.427 1.707)">
			<path class="st6" d="M1.7,0h23.9c0.9,0,1.7,0.8,1.7,1.7l0,0c0,0.9-0.8,1.7-1.7,1.7H1.7C0.8,3.4,0,2.6,0,1.7l0,0
				C0,0.8,0.8,0,1.7,0z"/>
			<path class="st6" d="M1.7,6.8h23.9c0.9,0,1.7,0.8,1.7,1.7v0c0,0.9-0.8,1.7-1.7,1.7H1.7C0.8,10.2,0,9.5,0,8.5v0
				C0,7.6,0.8,6.8,1.7,6.8z"/>
			<path class="st6" d="M1.7,13.7h23.9c0.9,0,1.7,0.8,1.7,1.7l0,0c0,0.9-0.8,1.7-1.7,1.7H1.7c-0.9,0-1.7-0.8-1.7-1.7l0,0
				C0,14.4,0.8,13.7,1.7,13.7z"/>
		</g>
	</g>
	<g transform="translate(738 326)">
		
			<linearGradient id="SVGID_00000103233826057501161910000007872029946942991233_" gradientUnits="userSpaceOnUse" x1="-1165.0852" y1="578.5714" x2="-1164.4734" y2="577.1537" gradientTransform="matrix(30 0 0 -30 34958 17350)">
			<stop  offset="0" style="stop-color:#FAD961"/>
			<stop  offset="1" style="stop-color:#FF52C1"/>
		</linearGradient>
		
			<circle style="fill-rule:evenodd;clip-rule:evenodd;fill:url(#SVGID_00000103233826057501161910000007872029946942991233_);" cx="15" cy="15" r="15"/>
		<g transform="translate(46 3)">
			<path class="st5" d="M0.9,0h55.7c0.5,0,0.9,0.4,0.9,0.9v3.5c0,0.5-0.4,0.9-0.9,0.9H0.9C0.4,5.3,0,4.9,0,4.4V0.9
				C0,0.4,0.4,0,0.9,0z"/>
			<path class="st5" d="M0.9,10.7h198.2c0.5,0,0.9,0.4,0.9,0.9v0.8c0,0.5-0.4,0.9-0.9,0.9H0.9c-0.5,0-0.9-0.4-0.9-0.9v-0.8
				C0,11.1,0.4,10.7,0.9,10.7z"/>
			<path class="st5" d="M0.9,16h181.5c0.5,0,0.9,0.4,0.9,0.9v0.8c0,0.5-0.4,0.9-0.9,0.9H0.9c-0.5,0-0.9-0.4-0.9-0.9v-0.8
				C0,16.4,0.4,16,0.9,16z"/>
			<path class="st5" d="M0.9,21.3h164.8c0.5,0,0.9,0.4,0.9,0.9v0.8c0,0.5-0.4,0.9-0.9,0.9H0.9C0.4,24,0,23.6,0,23.1v-0.8
				C0,21.7,0.4,21.3,0.9,21.3z"/>
		</g>
	</g>
	<g transform="translate(738 464)">
		
			<linearGradient id="SVGID_00000106861788323122989190000016314084205556191404_" gradientUnits="userSpaceOnUse" x1="-1165.0852" y1="440.5714" x2="-1164.4734" y2="439.1537" gradientTransform="matrix(30 0 0 -30 34958 13210)">
			<stop  offset="0" style="stop-color:#FAD961"/>
			<stop  offset="1" style="stop-color:#FF52C1"/>
		</linearGradient>
		
			<circle style="fill-rule:evenodd;clip-rule:evenodd;fill:url(#SVGID_00000106861788323122989190000016314084205556191404_);" cx="15" cy="15" r="15"/>
		<g transform="translate(46 3)">
			<path class="st5" d="M0.9,0h55.7c0.5,0,0.9,0.4,0.9,0.9v3.5c0,0.5-0.4,0.9-0.9,0.9H0.9C0.4,5.3,0,4.9,0,4.4V0.9
				C0,0.4,0.4,0,0.9,0z"/>
			<path class="st5" d="M0.9,10.7h198.2c0.5,0,0.9,0.4,0.9,0.9v0.8c0,0.5-0.4,0.9-0.9,0.9H0.9c-0.5,0-0.9-0.4-0.9-0.9v-0.8
				C0,11.1,0.4,10.7,0.9,10.7z"/>
			<path class="st5" d="M0.9,16h181.5c0.5,0,0.9,0.4,0.9,0.9v0.8c0,0.5-0.4,0.9-0.9,0.9H0.9c-0.5,0-0.9-0.4-0.9-0.9v-0.8
				C0,16.4,0.4,16,0.9,16z"/>
			<path class="st5" d="M0.9,21.3h164.8c0.5,0,0.9,0.4,0.9,0.9v0.8c0,0.5-0.4,0.9-0.9,0.9H0.9C0.4,24,0,23.6,0,23.1v-0.8
				C0,21.7,0.4,21.3,0.9,21.3z"/>
		</g>
	</g>
	<g transform="translate(738 372)">
		<g transform="translate(46 3)">
			<path class="st5" d="M0.9,0h55.7c0.5,0,0.9,0.4,0.9,0.9v3.5c0,0.5-0.4,0.9-0.9,0.9H0.9C0.4,5.3,0,4.9,0,4.4V0.9
				C0,0.4,0.4,0,0.9,0z"/>
			<path class="st5" d="M0.9,10.7h198.2c0.5,0,0.9,0.4,0.9,0.9v0.8c0,0.5-0.4,0.9-0.9,0.9H0.9c-0.5,0-0.9-0.4-0.9-0.9v-0.8
				C0,11.1,0.4,10.7,0.9,10.7z"/>
			<path class="st5" d="M0.9,16h181.5c0.5,0,0.9,0.4,0.9,0.9v0.8c0,0.5-0.4,0.9-0.9,0.9H0.9c-0.5,0-0.9-0.4-0.9-0.9v-0.8
				C0,16.4,0.4,16,0.9,16z"/>
			<path class="st5" d="M0.9,21.3h164.8c0.5,0,0.9,0.4,0.9,0.9v0.8c0,0.5-0.4,0.9-0.9,0.9H0.9C0.4,24,0,23.6,0,23.1v-0.8
				C0,21.7,0.4,21.3,0.9,21.3z"/>
		</g>
		
			<linearGradient id="SVGID_00000170253984311639202040000005729855078829426590_" gradientUnits="userSpaceOnUse" x1="-1164.7667" y1="532.3333" x2="-1164.7667" y2="531.3333" gradientTransform="matrix(30 0 0 -30 34958 15970)">
			<stop  offset="0" style="stop-color:#00C7FA"/>
			<stop  offset="1" style="stop-color:#007DFA"/>
		</linearGradient>
		
			<circle style="fill-rule:evenodd;clip-rule:evenodd;fill:url(#SVGID_00000170253984311639202040000005729855078829426590_);" cx="15" cy="15" r="15"/>
	</g>
	<g transform="translate(738 510)">
		<g transform="translate(46 3)">
			<path class="st5" d="M0.9,0h55.7c0.5,0,0.9,0.4,0.9,0.9v3.5c0,0.5-0.4,0.9-0.9,0.9H0.9C0.4,5.3,0,4.9,0,4.4V0.9
				C0,0.4,0.4,0,0.9,0z"/>
			<path class="st5" d="M0.9,10.7h198.2c0.5,0,0.9,0.4,0.9,0.9v0.8c0,0.5-0.4,0.9-0.9,0.9H0.9c-0.5,0-0.9-0.4-0.9-0.9v-0.8
				C0,11.1,0.4,10.7,0.9,10.7z"/>
			<path class="st5" d="M0.9,16h181.5c0.5,0,0.9,0.4,0.9,0.9v0.8c0,0.5-0.4,0.9-0.9,0.9H0.9c-0.5,0-0.9-0.4-0.9-0.9v-0.8
				C0,16.4,0.4,16,0.9,16z"/>
			<path class="st5" d="M0.9,21.3h164.8c0.5,0,0.9,0.4,0.9,0.9v0.8c0,0.5-0.4,0.9-0.9,0.9H0.9C0.4,24,0,23.6,0,23.1v-0.8
				C0,21.7,0.4,21.3,0.9,21.3z"/>
		</g>
		
			<linearGradient id="SVGID_00000163036443512475642520000015716413095135365810_" gradientUnits="userSpaceOnUse" x1="-1164.7667" y1="394.3333" x2="-1164.7667" y2="393.3333" gradientTransform="matrix(30 0 0 -30 34958 11830)">
			<stop  offset="0" style="stop-color:#00C7FA"/>
			<stop  offset="1" style="stop-color:#007DFA"/>
		</linearGradient>
		
			<circle style="fill-rule:evenodd;clip-rule:evenodd;fill:url(#SVGID_00000163036443512475642520000015716413095135365810_);" cx="15" cy="15" r="15"/>
	</g>
	<g transform="translate(738 418)">
		<g transform="translate(46 3)">
			<path class="st5" d="M0.9,0h55.7c0.5,0,0.9,0.4,0.9,0.9v3.5c0,0.5-0.4,0.9-0.9,0.9H0.9C0.4,5.3,0,4.9,0,4.4V0.9
				C0,0.4,0.4,0,0.9,0z"/>
			<path class="st5" d="M0.9,10.7h198.2c0.5,0,0.9,0.4,0.9,0.9v0.8c0,0.5-0.4,0.9-0.9,0.9H0.9c-0.5,0-0.9-0.4-0.9-0.9v-0.8
				C0,11.1,0.4,10.7,0.9,10.7z"/>
			<path class="st5" d="M0.9,16h181.5c0.5,0,0.9,0.4,0.9,0.9v0.8c0,0.5-0.4,0.9-0.9,0.9H0.9c-0.5,0-0.9-0.4-0.9-0.9v-0.8
				C0,16.4,0.4,16,0.9,16z"/>
			<path class="st5" d="M0.9,21.3h164.8c0.5,0,0.9,0.4,0.9,0.9v0.8c0,0.5-0.4,0.9-0.9,0.9H0.9C0.4,24,0,23.6,0,23.1v-0.8
				C0,21.7,0.4,21.3,0.9,21.3z"/>
		</g>
		
			<linearGradient id="SVGID_00000139999955502607926440000003743867538309284746_" gradientUnits="userSpaceOnUse" x1="-1165.0267" y1="486.3059" x2="-1164.4146" y2="485.1935" gradientTransform="matrix(30 0 0 -30 34958 14590)">
			<stop  offset="0" style="stop-color:#FF52C1"/>
			<stop  offset="1" style="stop-color:#9952FF"/>
		</linearGradient>
		
			<circle style="fill-rule:evenodd;clip-rule:evenodd;fill:url(#SVGID_00000139999955502607926440000003743867538309284746_);" cx="15" cy="15" r="15"/>
	</g>
	<g transform="translate(738 556)">
		<g transform="translate(46 3)">
			<path class="st5" d="M0.9,0h55.7c0.5,0,0.9,0.4,0.9,0.9v3.5c0,0.5-0.4,0.9-0.9,0.9H0.9C0.4,5.3,0,4.9,0,4.4V0.9
				C0,0.4,0.4,0,0.9,0z"/>
			<path class="st5" d="M0.9,10.7h198.2c0.5,0,0.9,0.4,0.9,0.9v0.8c0,0.5-0.4,0.9-0.9,0.9H0.9c-0.5,0-0.9-0.4-0.9-0.9v-0.8
				C0,11.1,0.4,10.7,0.9,10.7z"/>
			<path class="st5" d="M0.9,16h181.5c0.5,0,0.9,0.4,0.9,0.9v0.8c0,0.5-0.4,0.9-0.9,0.9H0.9c-0.5,0-0.9-0.4-0.9-0.9v-0.8
				C0,16.4,0.4,16,0.9,16z"/>
			<path class="st5" d="M0.9,21.3h164.8c0.5,0,0.9,0.4,0.9,0.9v0.8c0,0.5-0.4,0.9-0.9,0.9H0.9C0.4,24,0,23.6,0,23.1v-0.8
				C0,21.7,0.4,21.3,0.9,21.3z"/>
		</g>
		
			<linearGradient id="SVGID_00000139980375097998475910000016966671406043566227_" gradientUnits="userSpaceOnUse" x1="-1165.0267" y1="348.3059" x2="-1164.4146" y2="347.1935" gradientTransform="matrix(30 0 0 -30 34958 10450)">
			<stop  offset="0" style="stop-color:#FF52C1"/>
			<stop  offset="1" style="stop-color:#9952FF"/>
		</linearGradient>
		
			<circle style="fill-rule:evenodd;clip-rule:evenodd;fill:url(#SVGID_00000139980375097998475910000016966671406043566227_);" cx="15" cy="15" r="15"/>
	</g>
	<g transform="translate(738 602)">
		
			<linearGradient id="SVGID_00000005968036593265014560000008277980394867458440_" gradientUnits="userSpaceOnUse" x1="-1165.0852" y1="302.5714" x2="-1164.4734" y2="301.1537" gradientTransform="matrix(30 0 0 -30 34958 9070)">
			<stop  offset="0" style="stop-color:#FAD961"/>
			<stop  offset="1" style="stop-color:#FF52C1"/>
		</linearGradient>
		
			<circle style="fill-rule:evenodd;clip-rule:evenodd;fill:url(#SVGID_00000005968036593265014560000008277980394867458440_);" cx="15" cy="15" r="15"/>
		<g transform="translate(46 3)">
			<path class="st5" d="M0.9,0h55.7c0.5,0,0.9,0.4,0.9,0.9v3.5c0,0.5-0.4,0.9-0.9,0.9H0.9C0.4,5.3,0,4.9,0,4.4V0.9
				C0,0.4,0.4,0,0.9,0z"/>
			<path class="st5" d="M0.9,10.7h198.2c0.5,0,0.9,0.4,0.9,0.9v0.8c0,0.5-0.4,0.9-0.9,0.9H0.9c-0.5,0-0.9-0.4-0.9-0.9v-0.8
				C0,11.1,0.4,10.7,0.9,10.7z"/>
			<path class="st5" d="M0.9,16h181.5c0.5,0,0.9,0.4,0.9,0.9v0.8c0,0.5-0.4,0.9-0.9,0.9H0.9c-0.5,0-0.9-0.4-0.9-0.9v-0.8
				C0,16.4,0.4,16,0.9,16z"/>
			<path class="st5" d="M0.9,21.3h164.8c0.5,0,0.9,0.4,0.9,0.9v0.8c0,0.5-0.4,0.9-0.9,0.9H0.9C0.4,24,0,23.6,0,23.1v-0.8
				C0,21.7,0.4,21.3,0.9,21.3z"/>
		</g>
	</g>
	<g transform="translate(738 648)">
		<g transform="translate(46 3)">
			<path class="st5" d="M0.9,0h55.7c0.5,0,0.9,0.4,0.9,0.9v3.5c0,0.5-0.4,0.9-0.9,0.9H0.9C0.4,5.3,0,4.9,0,4.4V0.9
				C0,0.4,0.4,0,0.9,0z"/>
			<path class="st5" d="M0.9,10.7h198.2c0.5,0,0.9,0.4,0.9,0.9v0.8c0,0.5-0.4,0.9-0.9,0.9H0.9c-0.5,0-0.9-0.4-0.9-0.9v-0.8
				C0,11.1,0.4,10.7,0.9,10.7z"/>
			<path class="st5" d="M0.9,16h181.5c0.5,0,0.9,0.4,0.9,0.9v0.8c0,0.5-0.4,0.9-0.9,0.9H0.9c-0.5,0-0.9-0.4-0.9-0.9v-0.8
				C0,16.4,0.4,16,0.9,16z"/>
			<path class="st5" d="M0.9,21.3h164.8c0.5,0,0.9,0.4,0.9,0.9v0.8c0,0.5-0.4,0.9-0.9,0.9H0.9C0.4,24,0,23.6,0,23.1v-0.8
				C0,21.7,0.4,21.3,0.9,21.3z"/>
		</g>
		
			<linearGradient id="SVGID_00000049181820066861393050000013581537348440763293_" gradientUnits="userSpaceOnUse" x1="-1164.7667" y1="256.3333" x2="-1164.7667" y2="255.3333" gradientTransform="matrix(30 0 0 -30 34958 7690)">
			<stop  offset="0" style="stop-color:#00C7FA"/>
			<stop  offset="1" style="stop-color:#007DFA"/>
		</linearGradient>
		
			<circle style="fill-rule:evenodd;clip-rule:evenodd;fill:url(#SVGID_00000049181820066861393050000013581537348440763293_);" cx="15" cy="15" r="15"/>
	</g>
</g>
</svg>
